PERFORMER "Baltazar Ortiz"
FILE "/home/baltazar/Music/Mixxx/Recordings/2016-05-12_13h05m06s.mp3" MP3 
  TRACK 01 AUDIO
    TITLE "New Americana (HAKT x 5HOW Bootleg)"
    PERFORMER "Halsey, HAKT x 5HOW"
    INDEX 01 00:04:54
  TRACK 02 AUDIO
    TITLE "Young, Wild & Free"
    PERFORMER "Wiz Khalifa & Snoop Dogg f. Bruno Mars"
    INDEX 01 02:39:25
  TRACK 03 AUDIO
    TITLE "Stereo Hearts"
    PERFORMER "Gym Class Heroes f. Adam Levin"
    INDEX 01 05:35:62
  TRACK 04 AUDIO
    TITLE "Relax"
    PERFORMER "Das Racist"
    INDEX 01 08:37:72
  TRACK 05 AUDIO
    TITLE "Back In Black"
    PERFORMER "AC/DC"
    INDEX 01 12:41:35
  TRACK 06 AUDIO
    TITLE "Let Me Love You (Tim Gunter Remix)"
    PERFORMER "Mario"
    INDEX 01 15:59:11
  TRACK 07 AUDIO
    TITLE "Sweet Emotion"
    PERFORMER "Aerosmith"
    INDEX 01 19:45:23
  TRACK 08 AUDIO
    TITLE "Jack Ü feat Kiesza - Take U There (Pusher Flip)"
    PERFORMER "Pusher"
    INDEX 01 23:35:00
  TRACK 09 AUDIO
    TITLE "IKO (Tropkillaz remix)"
    PERFORMER "N.A.S.A"
    INDEX 01 26:50:38
  TRACK 10 AUDIO
    TITLE "Gettin' Jiggy Wit It"
    PERFORMER "Will Smith"
    INDEX 01 29:15:22
  TRACK 11 AUDIO
    TITLE "Knock Knock (Explicit)"
    PERFORMER "Mac Miller"
    INDEX 01 32:26:02
  TRACK 12 AUDIO
    TITLE "American Boy"
    PERFORMER "Estelle Feat. KanYe West"
    INDEX 01 35:20:69
  TRACK 13 AUDIO
    TITLE "Danger! High Voltage"
    PERFORMER "Electric Six"
    INDEX 01 39:26:47
  TRACK 14 AUDIO
    TITLE "Last Friday Night"
    PERFORMER "Katy Perry"
    INDEX 01 42:49:17
  TRACK 15 AUDIO
    TITLE "Die Young"
    PERFORMER "Ke$ha"
    INDEX 01 46:26:50
